<?xml version="1.0" standalone="no"?><!DOCTYPE svg PUBLIC "-//W3C//DTD SVG 1.1//EN" "http://www.w3.org/Graphics/SVG/1.1/DTD/svg11.dtd"><svg t="1510197134202" class="icon" style="" viewBox="0 0 1024 1024" version="1.1" xmlns="http://www.w3.org/2000/svg" p-id="11936" xmlns:xlink="http://www.w3.org/1999/xlink" width="128" height="128"><defs><style type="text/css">html, * { user-select: text !important; }
</style></defs><path d="M764.586667 97.28H310.613333c-63.146667 0-114.346667 56.32-114.346666 124.586667v571.733333c0 68.266667 51.2 124.586667 114.346666 124.586667h455.68c63.146667 0 114.346667-56.32 114.346667-124.586667V220.16c-1.706667-68.266667-52.906667-122.88-116.053333-122.88zM351.573333 290.133333h196.266667c13.653333 0 25.6 11.946667 25.6 29.013334 0 15.36-11.946667 29.013333-25.6 29.013333H351.573333c-13.653333 0-25.6-11.946667-25.6-29.013333s11.946667-29.013333 25.6-29.013334z m372.053334 433.493334H351.573333c-13.653333 0-25.6-13.653333-25.6-29.013334 0-15.36 11.946667-29.013333 25.6-29.013333h372.053334c13.653333 0 25.6 11.946667 25.6 29.013333 0 15.36-11.946667 29.013333-25.6 29.013334z m0-187.733334H351.573333c-13.653333 0-25.6-11.946667-25.6-29.013333 0-15.36 11.946667-29.013333 25.6-29.013333h372.053334c13.653333 0 25.6 13.653333 25.6 29.013333 0 15.36-11.946667 29.013333-25.6 29.013333z" p-id="11937" fill="#B4C2CE"></path></svg>