<?xml version="1.0" standalone="no"?><!DOCTYPE svg PUBLIC "-//W3C//DTD SVG 1.1//EN" "http://www.w3.org/Graphics/SVG/1.1/DTD/svg11.dtd"><svg t="1510197236803" class="icon" style="" viewBox="0 0 1024 1024" version="1.1" xmlns="http://www.w3.org/2000/svg" p-id="15329" xmlns:xlink="http://www.w3.org/1999/xlink" width="128" height="128"><defs><style type="text/css">html, * { user-select: text !important; }
</style></defs><path d="M512.145309 957.390953c-72.232115 0-144.463206 0.033769-216.695321-0.01842-24.288173-0.017396-47.905056-3.721765-69.628824-15.188934-35.273365-18.618033-55.576783-48.136324-61.619406-87.37193-4.294816-27.884071-1.827625-55.884798 0.289596-83.750449 2.551102-33.574676 8.547677-66.644863 18.625196-98.837052 9.78997-31.277354 24.046672-60.250222 46.407959-84.631516 24.341385-26.54047 55.163367-39.515992 90.591251-43.228547 12.053524-1.26276 22.323425 1.291412 32.232099 8.088212 14.738679 10.110265 29.582759 20.150946 44.991704 29.181623 28.045753 16.437367 58.509579 26.387997 90.820472 29.797653 57.774845 6.097882 110.061698-9.252735 157.725254-41.763173 7.658424-5.223978 15.776312-9.82067 23.141046-15.417131 11.948123-9.079796 24.825408-11.507078 39.640836-9.464559 33.132608 4.567016 61.998029 17.23964 85.123726 41.782615 16.324804 17.324574 28.002774 37.659715 37.381375 59.371202 12.96529 30.016641 19.745716 61.699224 24.710798 93.824899 4.842285 31.331589 6.54916 62.928215 5.732561 94.559633-1.194198 46.240137-19.388583 83.344197-60.977793 106.596783-22.24156 12.435217-46.647413 16.415878-71.796186 16.442484C656.608515 957.439048 584.377424 957.390953 512.145309 957.390953z" p-id="15330" fill="#B4C2CE"></path><path d="M511.962138 194.046484c103.006002-2.118244 191.189414 86.316901 191.268208 190.344163 0.079818 105.066941-87.707574 191.012382-189.783391 191.696973-103.57496 0.694825-192.257745-85.558631-192.486966-190.967356C320.729745 279.68084 409.44016 192.065364 511.962138 194.046484z" p-id="15331" fill="#B4C2CE"></path><path d="M732.447784 352.602663c9.287527 2.350534 17.717524 4.723581 26.25599 6.604418 35.063587 7.721869 69.51933 5.367241 102.796224-8.070816 18.207687-7.353478 35.950793-15.934924 53.574173-24.628934 15.173584-7.485485 29.418007-5.306866 41.025369 7.319709 12.056594 13.113669 17.800411 29.271674 22.079878 46.041616 7.161097 28.057009 9.587356 56.749492 10.366092 85.581144 0.38374 14.20349 0.88209 28.510334-0.327458 42.62889-2.362814 27.575032-18.482957 45.50131-42.860157 56.873312-16.038278 7.481392-33.025161 10.55438-50.578955 10.683317-20.869307 0.153496-41.742706-0.106424-62.61099 0.150426-4.440126 0.054235-7.261381-1.447978-10.092869-4.65809-23.520693-26.660196-52.229548-45.171806-86.960561-53.422723-12.957103-3.078105-26.309202-4.489244-39.922245-6.733355C727.59322 463.501426 739.998761 410.620032 732.447784 352.602663z" p-id="15332" fill="#B4C2CE"></path><path d="M291.834648 352.191294c-4.238534 28.698622-3.00852 56.30947 3.370771 83.635839 6.377244 27.314089 18.032702 52.344159 33.761941 75.349105-12.208043 1.820462-24.051789 2.950192-35.606962 5.426593-36.335556 7.78736-66.414619 26.440186-90.944292 54.149271-3.056616 3.452635-6.027274 5.128811-10.868535 5.052063-22.848381-0.36225-45.715181 0.177032-68.553329-0.448208-19.284205-0.528026-37.498032-5.647627-54.178947-15.753799-21.419845-12.977569-32.79594-32.240285-33.507138-56.882522-1.105171-38.276768 0.795109-76.469626 8.603959-114.110921 3.540639-17.065677 8.507768-33.712823 18.73776-48.226375 6.823406-9.680477 15.497972-16.975627 27.619034-18.414395 4.166903-0.494257 8.984628 0.220011 12.818957 1.923816 19.774369 8.788154 38.997176 18.890232 59.026348 27.0204 39.697117 16.112979 80.256882 16.239869 121.045867 3.889587C285.679461 354.040409 288.200888 353.285209 291.834648 352.191294z" p-id="15333" fill="#B4C2CE"></path><path d="M352.964914 191.774745c1.89107 69.794599-55.604412 128.043235-124.599809 129.433908-69.848834 1.408069-128.225383-55.298444-129.836067-124.264165-1.629103-69.714781 55.187927-129.038912 124.868939-130.329301C292.865117 65.327868 352.744903 122.841769 352.964914 191.774745z" p-id="15334" fill="#B4C2CE"></path><path d="M798.321074 321.131905c-70.417793-0.034792-127.503952-57.181327-127.176494-127.313617 0.329505-70.756507 57.060577-126.84085 127.489626-127.134539 68.741617-0.287549 127.338177 57.970296 127.032208 127.231753C925.355329 264.21766 868.798219 321.166697 798.321074 321.131905z" p-id="15335" fill="#B4C2CE"></path></svg>